<svg width="266" height="268" viewBox="0 0 266 268" fill="none" xmlns="http://www.w3.org/2000/svg">
<path d="M163.43 14.8589L148.693 0H130.664L148.019 17.4988H112.561V30.3966H148.019L130.664 47.8954H148.693L163.43 33.0365L172.481 23.91L163.43 14.8589Z" fill="white"/>
<path d="M102.013 252.751L116.75 267.61H134.778L117.423 250.036H152.882V237.213H117.423L134.778 219.715H116.75L102.013 234.573L92.961 243.625L102.013 252.751Z" fill="white"/>
<path d="M27.579 195.956V217L40.3711 229.822V205.083L65.4315 230.426L74.4832 221.299L49.3479 195.956H73.9595L61.1675 183.134H40.3711H27.579V195.956Z" fill="white"/>
<path d="M237.862 71.5792V50.6109L225.145 37.713V62.5281L200.01 37.1851L191.033 46.3116L216.093 71.5792H191.557L204.274 84.477H225.145H237.862V71.5792Z" fill="white"/>
<path d="M232.626 122.567L217.889 137.426V155.603L235.319 138.105V173.857H248.036V138.105L265.392 155.603V137.426L250.655 122.567L241.678 113.44L232.626 122.567Z" fill="white"/>
<path d="M32.8165 145.043L47.5535 130.185V112.007L30.1982 129.506V93.7539H17.4062V129.506L0.0509033 112.007V130.185L14.7879 145.043L23.7648 154.095L32.8165 145.043Z" fill="white"/>
<path d="M211.232 197.087H190.435L177.718 209.91H202.255L177.12 235.253L186.171 244.379L211.232 219.036V243.851L224.024 230.953V209.91V197.087H211.232Z" fill="white"/>
<path d="M54.2104 70.5239H75.0068L87.7988 57.6261H63.1872L88.3225 32.3585L79.2708 23.2319L54.2104 48.575V23.7599L41.4183 36.6577V57.6261V70.5239H54.2104Z" fill="white"/>
</svg>
